<?xml version="1.0" encoding="UTF-8"?>
<svg xmlns="http://www.w3.org/2000/svg" xmlns:xlink="http://www.w3.org/1999/xlink" width="32px" height="32px" viewBox="0 0 32 32" version="1.1">
<defs>
<linearGradient id="linear0" gradientUnits="userSpaceOnUse" x1="93.4579" y1="4.20561" x2="4.67289" y2="95.7944" >
<stop offset="0" style="stop-color:rgb(56.078431%,73.72549%,73.333333%);stop-opacity:1;"/>
<stop offset="1" style="stop-color:rgb(36.862745%,50.588235%,67.45098%);stop-opacity:1;"/>
</linearGradient>
<linearGradient id="linear1" gradientUnits="userSpaceOnUse" x1="79" y1="21" x2="31" y2="82" gradientTransform="matrix(0.32,0,0,0.32,0,0)">
<stop offset="0.290538" style="stop-color:rgb(56.078431%,73.72549%,73.333333%);stop-opacity:1;"/>
<stop offset="0.8454" style="stop-color:rgb(36.862745%,50.588235%,67.45098%);stop-opacity:1;"/>
</linearGradient>
<linearGradient id="linear2" gradientUnits="userSpaceOnUse" x1="79" y1="21" x2="31" y2="82" gradientTransform="matrix(0.32,0,0,0.32,0,0)">
<stop offset="0.290538" style="stop-color:rgb(56.078431%,73.72549%,73.333333%);stop-opacity:1;"/>
<stop offset="0.8454" style="stop-color:rgb(36.862745%,50.588235%,67.45098%);stop-opacity:1;"/>
</linearGradient>
<linearGradient id="linear3" gradientUnits="userSpaceOnUse" x1="79" y1="21" x2="31" y2="82" gradientTransform="matrix(0.32,0,0,0.32,0,0)">
<stop offset="0.290538" style="stop-color:rgb(56.078431%,73.72549%,73.333333%);stop-opacity:1;"/>
<stop offset="0.8454" style="stop-color:rgb(36.862745%,50.588235%,67.45098%);stop-opacity:1;"/>
</linearGradient>
</defs>
<g id="surface1">
<path style="fill-rule:nonzero;fill:rgb(18.039216%,20.392157%,25.098039%);fill-opacity:1;stroke-width:1;stroke-linecap:butt;stroke-linejoin:miter;stroke:url(#linear0);stroke-miterlimit:4;" d="M 15.002441 0.500488 L 84.997559 0.500488 C 93.005371 0.500488 99.499512 6.994629 99.499512 15.002441 L 99.499512 84.997559 C 99.499512 93.005371 93.005371 99.499512 84.997559 99.499512 L 15.002441 99.499512 C 6.994629 99.499512 0.500488 93.005371 0.500488 84.997559 L 0.500488 15.002441 C 0.500488 6.994629 6.994629 0.500488 15.002441 0.500488 Z M 15.002441 0.500488 " transform="matrix(0.32,0,0,0.32,0,0)"/>
<path style=" stroke:none;fill-rule:nonzero;fill:rgb(92.54902%,93.72549%,95.686275%);fill-opacity:1;" d="M 10.007812 6.578125 C 9.898438 6.578125 9.796875 6.636719 9.738281 6.726562 L 1.332031 19.84375 C 1.195312 20.058594 1.351562 20.335938 1.601562 20.335938 L 3.816406 20.335938 C 3.925781 20.335938 4.027344 20.28125 4.085938 20.1875 L 11.09375 9.25 C 11.222656 9.050781 11.507812 9.050781 11.632812 9.25 L 22.476562 26.171875 C 22.539062 26.261719 22.640625 26.316406 22.746094 26.316406 L 24.960938 26.316406 C 25.214844 26.316406 25.367188 26.039062 25.230469 25.824219 L 12.992188 6.726562 C 12.933594 6.636719 12.832031 6.578125 12.722656 6.578125 Z M 10.007812 6.578125 "/>
<path style=" stroke:none;fill-rule:nonzero;fill:rgb(92.54902%,93.72549%,95.686275%);fill-opacity:1;" d="M 22.296875 6.726562 C 22.238281 6.636719 22.136719 6.578125 22.027344 6.578125 L 19.246094 6.578125 C 19.136719 6.578125 19.035156 6.636719 18.976562 6.726562 L 16.945312 9.921875 C 16.878906 10.027344 16.878906 10.160156 16.945312 10.265625 L 18.058594 12 C 18.183594 12.195312 18.472656 12.195312 18.597656 11.996094 L 20.367188 9.214844 C 20.492188 9.015625 20.78125 9.015625 20.90625 9.214844 L 27.882812 20.1875 C 27.941406 20.28125 28.042969 20.335938 28.152344 20.335938 L 30.367188 20.335938 C 30.621094 20.335938 30.773438 20.058594 30.636719 19.84375 Z M 22.296875 6.726562 "/>
<path style=" stroke:none;fill-rule:nonzero;fill:rgb(92.54902%,93.72549%,95.686275%);fill-opacity:1;" d="M 10.90625 20.335938 C 10.652344 20.335938 10.5 20.058594 10.632812 19.84375 L 13.429688 15.449219 C 13.554688 15.253906 13.84375 15.25 13.96875 15.449219 L 15.082031 17.183594 C 15.148438 17.285156 15.148438 17.421875 15.082031 17.527344 L 13.386719 20.1875 C 13.328125 20.28125 13.226562 20.335938 13.117188 20.335938 Z M 10.90625 20.335938 "/>
<path style=" stroke:none;fill-rule:nonzero;fill:url(#linear1);" d="M 11.578125 9.179688 C 11.597656 9.199219 11.617188 9.222656 11.632812 9.25 L 22.476562 26.171875 C 22.539062 26.261719 22.640625 26.316406 22.746094 26.316406 L 24.960938 26.316406 C 25.214844 26.316406 25.367188 26.039062 25.230469 25.824219 L 12.992188 6.726562 C 12.933594 6.636719 12.832031 6.578125 12.722656 6.578125 L 10.007812 6.578125 C 9.976562 6.578125 9.945312 6.582031 9.917969 6.59375 Z M 11.578125 9.179688 "/>
<path style=" stroke:none;fill-rule:nonzero;fill:url(#linear2);" d="M 22.046875 6.578125 C 22.039062 6.578125 22.035156 6.578125 22.027344 6.578125 L 19.246094 6.578125 C 19.136719 6.578125 19.035156 6.636719 18.976562 6.726562 L 16.945312 9.921875 C 16.878906 10.027344 16.878906 10.160156 16.945312 10.265625 L 18.058594 12 C 18.175781 12.179688 18.429688 12.195312 18.566406 12.039062 Z M 22.046875 6.578125 "/>
<path style=" stroke:none;fill-rule:nonzero;fill:url(#linear3);" d="M 15.117188 17.449219 C 15.144531 17.363281 15.132812 17.261719 15.082031 17.183594 L 13.96875 15.449219 C 13.84375 15.25 13.554688 15.253906 13.429688 15.449219 L 10.632812 19.84375 C 10.5 20.058594 10.652344 20.335938 10.90625 20.335938 L 13.117188 20.335938 C 13.195312 20.335938 13.269531 20.308594 13.324219 20.261719 Z M 15.117188 17.449219 "/>
</g>
</svg>
