<svg width="94" height="62" viewBox="0 0 94 62" fill="none" xmlns="http://www.w3.org/2000/svg">
<path d="M28.0959 0C27.7551 0 27.4378 0.17354 27.2539 0.460461L0.986559 41.4511C0.560045 42.1167 1.03801 42.9907 1.82852 42.9907H8.74151C9.08229 42.9907 9.39961 42.8171 9.58347 42.5302L31.493 8.33998C31.8865 7.72603 32.7835 7.72603 33.177 8.33998L67.0644 61.2218C67.2482 61.5087 67.5655 61.6822 67.9063 61.6822H74.8193C75.6098 61.6822 76.0878 60.8083 75.6613 60.1427L37.4161 0.46046C37.2322 0.173539 36.9149 0 36.5741 0H28.0959Z" fill="#ECEFF4"/>
<path d="M66.4985 0.463444C66.315 0.174813 65.9966 0 65.6546 0H56.9593C56.6173 0 56.299 0.174813 56.1155 0.463444L49.7711 10.4416C49.5621 10.7702 49.5629 11.1902 49.7732 11.518L53.2474 16.9347C53.6419 17.5496 54.5411 17.5478 54.933 16.9314L60.4631 8.234C60.856 7.61608 61.7579 7.61607 62.1508 8.234L83.9555 42.5272C84.1391 42.8158 84.4574 42.9907 84.7994 42.9907H91.7178C92.5067 42.9907 92.9849 42.1198 92.5616 41.4541L66.4985 0.463444Z" fill="#ECEFF4"/>
<path d="M30.8962 42.9907C30.1073 42.9907 29.629 42.1198 30.0523 41.4541L38.7857 27.7187C39.1777 27.1022 40.0769 27.1004 40.4713 27.7153L43.9456 33.132C44.1558 33.4598 44.1567 33.8798 43.9477 34.2084L38.6584 42.5272C38.4749 42.8158 38.1566 42.9907 37.8145 42.9907H30.8962Z" fill="#ECEFF4"/>
<path d="M32.9957 8.12771C33.0635 8.18762 33.1247 8.25838 33.1769 8.33998L67.0643 61.2218C67.2482 61.5087 67.5655 61.6822 67.9063 61.6822H74.8193C75.6098 61.6822 76.0878 60.8083 75.6613 60.1427L37.416 0.46046C37.2322 0.173539 36.9149 0 36.5741 0H28.0959C27.9989 0 27.9039 0.0140497 27.8132 0.0407634L32.9957 8.12771Z" fill="url(#paint0_linear_18_332)"/>
<path d="M65.7101 0.00153759C65.6917 0.000515788 65.6732 0 65.6546 0H56.9593C56.6173 0 56.299 0.174813 56.1154 0.463444L49.771 10.4416C49.5621 10.7702 49.5629 11.1902 49.7732 11.518L53.2474 16.9347C53.6132 17.5049 54.4129 17.5448 54.8399 17.0561L65.7101 0.00153759Z" fill="url(#paint1_linear_18_332)"/>
<path d="M44.0576 33.9726C44.1455 33.6939 44.1081 33.3854 43.9456 33.132L40.4713 27.7153C40.0769 27.1004 39.1777 27.1022 38.7857 27.7187L30.0523 41.4541C29.629 42.1198 30.1072 42.9907 30.8962 42.9907H37.8145C38.0542 42.9907 38.2823 42.9048 38.4605 42.754L44.0576 33.9726Z" fill="url(#paint2_linear_18_332)"/>
<defs>
<linearGradient id="paint0_linear_18_332" x1="75.8191" y1="0.439208" x2="27.8191" y2="61.4392" gradientUnits="userSpaceOnUse">
<stop offset="0.290538" stop-color="#8FBCBB"/>
<stop offset="0.8454" stop-color="#5E81AC"/>
</linearGradient>
<linearGradient id="paint1_linear_18_332" x1="75.8191" y1="0.439208" x2="27.8191" y2="61.4392" gradientUnits="userSpaceOnUse">
<stop offset="0.290538" stop-color="#8FBCBB"/>
<stop offset="0.8454" stop-color="#5E81AC"/>
</linearGradient>
<linearGradient id="paint2_linear_18_332" x1="75.8191" y1="0.439208" x2="27.8191" y2="61.4392" gradientUnits="userSpaceOnUse">
<stop offset="0.290538" stop-color="#8FBCBB"/>
<stop offset="0.8454" stop-color="#5E81AC"/>
</linearGradient>
</defs>
</svg>
