<svg width="140" height="175" viewBox="0 0 140 175" fill="none" xmlns="http://www.w3.org/2000/svg">
<rect width="140" height="175" fill="#E5E9F0"/>
<path d="M70 66.1667C67.7898 66.1667 65.6702 67.0446 64.1074 68.6074C62.5446 70.1703 61.6666 72.2899 61.6666 74.5C61.6666 76.7101 62.5446 78.8298 64.1074 80.3926C65.6702 81.9554 67.7898 82.8333 70 82.8333C72.2101 82.8333 74.3297 81.9554 75.8925 80.3926C77.4553 78.8298 78.3333 76.7101 78.3333 74.5C78.3333 72.2899 77.4553 70.1703 75.8925 68.6074C74.3297 67.0446 72.2101 66.1667 70 66.1667ZM80.4166 87H59.5833C57.9257 87 56.336 87.6585 55.1639 88.8306C53.9918 90.0027 53.3333 91.5924 53.3333 93.25C53.3333 97.9 55.2458 101.625 58.3833 104.146C61.4708 106.625 65.6125 107.833 70 107.833C74.3875 107.833 78.5291 106.625 81.6166 104.146C84.75 101.625 86.6666 97.9 86.6666 93.25C86.6666 91.5924 86.0082 90.0027 84.8361 88.8306C83.664 87.6585 82.0742 87 80.4166 87Z" fill="#4C566A"/>
</svg>
